PathFileType	4	(x/y/z)	S08_PSF_T11
DataRate	CameraRate	NumFrames	NumMarkers	Units	OrigDataRate	OrigDataStartFrame	OrigNumFrames
240	240	9	51	mm	240	1	440
Frame#	Time	Sternum			R.Acromium			L.Acromium			Top.Head			R.ASIS			L.ASIS			R.PSIS			L.PSIS			R.Great.Tro			L.Great.Tro			R.Iliac.Crest			L.Iliac.Crest			V.Sacral			R.Thigh.Upper.Post			R.Thigh.Lower.Ant			R.Thigh.Lower.Post			R.Thigh.Upper.Ant			R.Knee.Lat			R.Knee.Med			R.Shank.Upper.Post			R.Shank.Lower.Ant			R.Shank.Lower.Post			R.Shank.Upper.Ant			R.Ankle.Lat			R.Ankle.Med			R.Heel.Upper			R.Heel.Med			R.Heel.Lat			R.Toe.Lat			R.Toe.Med			R.Toe.Tip			L.Thigh.Upper.Post			L.Thigh.Lower.Ant			L.Thigh.Lower.Post			L.Thigh.Upper.Ant			L.Knee.Lat			L.Knee.Med			L.Shank.Upper.Post			L.Shank.Lower.Ant			L.Shank.Lower.Post			L.Shank.Upper.Ant			L.Ankle.Lat			L.Ankle.Med			L.Heel.Upper			L.Heel.Med			L.Heel.Lat			L.Toe.Lat			L.Toe.Med			L.Toe.Tip			Cervical.Spine			Back			
		X1	Y1	Z1	X2	Y2	Z2	X3	Y3	Z3	X4	Y4	Z4	X5	Y5	Z5	X6	Y6	Z6	X7	Y7	Z7	X8	Y8	Z8	X9	Y9	Z9	X10	Y10	Z10	X11	Y11	Z11	X12	Y12	Z12	X13	Y13	Z13	X14	Y14	Z14	X15	Y15	Z15	X16	Y16	Z16	X17	Y17	Z17	X18	Y18	Z18	X19	Y19	Z19	X20	Y20	Z20	X21	Y21	Z21	X22	Y22	Z22	X23	Y23	Z23	X24	Y24	Z24	X25	Y25	Z25	X26	Y26	Z26	X27	Y27	Z27	X28	Y28	Z28	X29	Y29	Z29	X30	Y30	Z30	X31	Y31	Z31	X32	Y32	Z32	X33	Y33	Z33	X34	Y34	Z34	X35	Y35	Z35	X36	Y36	Z36	X37	Y37	Z37	X38	Y38	Z38	X39	Y39	Z39	X40	Y40	Z40	X41	Y41	Z41	X42	Y42	Z42	X43	Y43	Z43	X44	Y44	Z44	X45	Y45	Z45	X46	Y46	Z46	X47	Y47	Z47	X48	Y48	Z48	X49	Y49	Z49	X50	Y50	Z50	X51	Y51	Z51	

1	0	NaN	NaN	NaN	-1593.7	1449.5	493.09	-1621.1	1471.3	157.52	-1603.7	1762.9	335.66	NaN	NaN	NaN	NaN	NaN	NaN	NaN	NaN	NaN	NaN	NaN	NaN	-1597.7	891.47	497.37	-1572	891.18	127.6	-1611.6	1067.6	474.26	-1588.1	1079.3	164.62	-1717.3	980.69	296.94	-1663.8	706.21	478.76	-1611.2	595	441.52	NaN	NaN	NaN	-1586	685.07	466.48	-1684.9	507.3	432.55	-1700.3	519.59	304.77	NaN	NaN	NaN	-1783.7	285.52	405.66	-1851.7	294.76	421.2	NaN	NaN	NaN	NaN	NaN	NaN	-1888.3	144.69	301.17	-1980.1	115.5	329.49	-1971.9	84.693	303.97	-1981.6	92.191	364.29	-1816.6	41.28	420.11	NaN	NaN	NaN	-1726.7	52.92	353.24	-1521.6	687.32	143.49	-1399	634.72	156.62	-1477	609.25	159.49	NaN	NaN	NaN	-1421	523.44	178.56	-1409	525.59	304.49	-1410.6	334.26	177.68	-1315.4	276.51	197.39	-1388.8	264.52	192.6	-1344.9	345.21	182.5	-1302.9	107.58	205.61	-1284.1	123.2	292.25	NaN	NaN	NaN	-1319.1	39.396	287.92	-1324.4	41.245	223.66	-1155.7	89.757	195.71	-1144.3	105.83	306.82	-1090.1	144.47	259.66	-1674.3	1506.3	322.59	-1718.2	1222.2	335.29
2	0.0041667	NaN	NaN	NaN	-1588.7	1449.1	492.62	-1616.1	1470.9	157.05	-1599	1762.5	335.34	NaN	NaN	NaN	NaN	NaN	NaN	NaN	NaN	NaN	NaN	NaN	NaN	-1592.4	891.07	496.94	-1567.1	891.06	127.58	-1606	1067.2	473.98	-1582.7	1079	164.28	-1711.8	980.4	296.68	-1658.5	705.77	478.18	-1605.8	594.45	441.31	NaN	NaN	NaN	-1580.6	684.49	466.35	-1679.3	506.85	432.56	-1694.2	518.95	304.72	NaN	NaN	NaN	-1780.1	286.14	405.88	-1847.8	296	421.29	NaN	NaN	NaN	NaN	NaN	NaN	-1886.1	146.49	301.7	-1978.4	118.48	329.74	-1970.5	87.767	304.06	-1980.3	95.043	364.43	-1816.4	41.372	420.16	NaN	NaN	NaN	-1726.1	52.586	353.26	-1516.4	687	143.74	-1393.8	634.37	156.91	-1471.8	608.93	159.78	NaN	NaN	NaN	-1415.6	522.97	178.91	-1403.8	525.31	304.57	-1406.9	333.85	177.87	-1312.4	275.33	197.87	-1385.8	263.95	192.82	-1341.3	344.28	182.94	-1301.3	106.55	205.81	-1282.4	121.95	292.72	NaN	NaN	NaN	-1318.4	39.163	288.07	-1323.6	41.363	223.87	-1154.3	87.085	196.26	-1143	102.55	307.46	-1088.1	140.67	260.52	-1669.4	1505.8	322.11	-1712.9	1221.6	334.88
3	0.0083333	NaN	NaN	NaN	-1583.5	1448.7	492.14	-1610.8	1470.5	156.56	-1594.1	1762.2	335.01	NaN	NaN	NaN	NaN	NaN	NaN	NaN	NaN	NaN	NaN	NaN	NaN	-1586.8	890.65	496.49	-1562	890.95	127.54	-1600.1	1066.7	473.68	-1577.1	1078.7	163.93	-1706.1	980.12	296.41	-1652.9	705.32	477.58	-1600.2	593.89	441.13	NaN	NaN	NaN	-1575	683.88	466.24	-1673.5	506.39	432.59	-1687.8	518.26	304.7	NaN	NaN	NaN	-1776.2	286.8	406.13	-1843.6	297.31	421.39	NaN	NaN	NaN	NaN	NaN	NaN	-1883.7	148.38	302.26	-1976.4	121.66	330.01	-1969	91.044	304.16	-1978.8	98.089	364.57	-1816.2	41.484	420.21	NaN	NaN	NaN	-1725.5	52.274	353.28	-1511	686.7	143.96	-1388.4	634.03	157.2	-1466.3	608.63	160.06	NaN	NaN	NaN	-1410.1	522.51	179.24	-1398.4	525.03	304.64	-1403.1	333.45	178.06	-1309.3	274.14	198.36	-1382.7	263.38	193.04	-1337.5	343.34	183.37	-1299.6	105.52	206	-1280.6	120.69	293.2	NaN	NaN	NaN	-1317.6	38.958	288.22	-1322.8	41.508	224.07	-1153	84.329	196.83	-1141.5	99.165	308.1	-1086.1	136.74	261.39	-1664.3	1505.4	321.62	-1707.4	1221.1	334.46
4	0.0125	NaN	NaN	NaN	-1578.1	1448.4	491.64	-1605.5	1470.1	156.05	-1589	1761.9	334.66	NaN	NaN	NaN	NaN	NaN	NaN	NaN	NaN	NaN	NaN	NaN	NaN	-1581	890.23	496.02	-1556.7	890.86	127.48	-1594	1066.3	473.38	-1571.3	1078.4	163.56	-1700.2	979.86	296.13	-1647.1	704.85	476.95	-1594.5	593.31	440.98	NaN	NaN	NaN	-1569.1	683.26	466.14	-1667.4	505.92	432.66	-1681.2	517.53	304.69	NaN	NaN	NaN	-1772.1	287.51	406.41	-1839.2	298.67	421.51	NaN	NaN	NaN	NaN	NaN	NaN	-1881.2	150.34	302.87	-1974.3	125.02	330.31	-1967.3	94.523	304.29	-1977.2	101.33	364.74	-1816	41.62	420.26	NaN	NaN	NaN	-1724.9	51.991	353.29	-1505.4	686.44	144.17	-1382.8	633.72	157.51	-1460.7	608.37	160.31	NaN	NaN	NaN	-1404.4	522.07	179.55	-1392.9	524.78	304.69	-1399.2	333.06	178.23	-1306	272.96	198.84	-1379.4	262.83	193.24	-1333.5	342.42	183.81	-1297.9	104.5	206.2	-1278.7	119.45	293.69	NaN	NaN	NaN	-1316.9	38.786	288.36	-1322	41.681	224.28	-1151.6	81.516	197.4	-1140.1	95.714	308.75	-1084	132.7	262.27	-1659.1	1505	321.1	-1701.7	1220.6	334.02
5	0.016667	NaN	NaN	NaN	-1572.6	1448	491.13	-1599.9	1469.8	155.52	-1583.8	1761.6	334.31	NaN	NaN	NaN	NaN	NaN	NaN	NaN	NaN	NaN	NaN	NaN	NaN	-1575	889.8	495.54	-1551.2	890.78	127.37	-1587.7	1065.9	473.06	-1565.4	1078.2	163.19	-1694.2	979.61	295.85	-1641.1	704.38	476.31	-1588.6	592.73	440.85	NaN	NaN	NaN	-1563	682.63	466.05	-1661.1	505.45	432.76	-1674.2	516.77	304.7	NaN	NaN	NaN	-1767.7	288.28	406.71	-1834.6	300.09	421.66	NaN	NaN	NaN	NaN	NaN	NaN	-1878.5	152.38	303.51	-1972	128.57	330.64	-1965.5	98.202	304.43	-1975.5	104.76	364.92	-1815.7	41.787	420.31	NaN	NaN	NaN	-1724.4	51.742	353.3	-1499.6	686.23	144.33	-1377	633.44	157.82	-1455	608.14	160.53	NaN	NaN	NaN	-1398.7	521.66	179.84	-1387.3	524.54	304.71	-1395.1	332.71	178.38	-1302.7	271.8	199.32	-1376.1	262.31	193.43	-1329.5	341.51	184.23	-1296.1	103.52	206.39	-1276.8	118.25	294.2	NaN	NaN	NaN	-1316.1	38.656	288.5	-1321.1	41.887	224.48	-1150.2	78.674	197.96	-1138.6	92.229	309.38	-1081.9	128.59	263.13	-1653.6	1504.6	320.57	-1695.8	1220.1	333.58
6	0.020833	NaN	NaN	NaN	-1567	1447.7	490.61	-1594.3	1469.4	154.97	-1578.5	1761.3	333.94	NaN	NaN	NaN	NaN	NaN	NaN	NaN	NaN	NaN	NaN	NaN	NaN	-1568.8	889.37	495.04	-1545.5	890.72	127.23	-1581.3	1065.5	472.73	-1559.3	1078	162.81	-1688	979.4	295.57	-1634.9	703.9	475.66	-1582.5	592.14	440.77	NaN	NaN	NaN	-1556.7	681.99	465.98	-1654.5	504.97	432.91	-1666.9	515.97	304.75	-1804.7	371.92	431.4	-1763.2	289.09	407.06	-1829.7	301.56	421.85	NaN	NaN	NaN	-1912.8	153.49	380.29	-1875.6	154.48	304.19	-1969.5	132.3	331	-1963.5	102.08	304.61	-1973.5	108.39	365.14	-1815.5	41.992	420.37	NaN	NaN	NaN	-1724.1	51.529	353.3	-1493.6	686.07	144.45	-1371.1	633.2	158.13	-1449.1	607.95	160.7	NaN	NaN	NaN	-1392.8	521.27	180.1	-1381.6	524.34	304.72	-1390.9	332.39	178.51	-1299.2	270.68	199.77	-1372.6	261.83	193.59	-1325.3	340.65	184.63	-1294.3	102.57	206.58	-1274.9	117.09	294.7	NaN	NaN	NaN	-1315.3	38.571	288.63	-1320.3	42.124	224.67	-1148.8	75.828	198.51	-1137.1	88.741	309.99	-1079.8	124.43	263.97	-1648.1	1504.2	320.03	-1689.8	1219.6	333.13
7	0.025	NaN	NaN	NaN	-1561.2	1447.4	490.08	-1588.5	1469.1	154.41	-1573.1	1761.1	333.57	NaN	NaN	NaN	NaN	NaN	NaN	NaN	NaN	NaN	NaN	NaN	NaN	-1562.4	888.94	494.54	-1539.7	890.7	127.04	-1574.7	1065.1	472.4	-1553.1	1077.8	162.42	-1681.7	979.21	295.28	-1628.5	703.4	475.01	-1576.4	591.54	440.72	NaN	NaN	NaN	-1550.3	681.36	465.92	-1647.7	504.49	433.1	-1659.5	515.13	304.82	-1799	372.98	431.59	-1758.3	289.95	407.44	-1824.7	303.07	422.06	NaN	NaN	NaN	-1910.1	155.98	380.95	-1872.6	156.65	304.92	-1966.8	136.21	331.39	-1961.3	106.16	304.82	-1971.4	112.22	365.38	-1815.2	42.244	420.43	NaN	NaN	NaN	-1723.8	51.351	353.28	-1487.6	685.97	144.52	-1365.1	633	158.44	-1443.1	607.82	160.83	NaN	NaN	NaN	-1386.9	520.93	180.32	-1375.9	524.17	304.68	-1386.7	332.12	178.6	-1295.7	269.61	200.2	-1369	261.39	193.73	-1321.1	339.82	185	-1292.4	101.68	206.75	-1272.9	115.98	295.19	NaN	NaN	NaN	-1314.5	38.533	288.75	-1319.4	42.392	224.85	-1147.4	73.001	199.04	-1135.7	85.28	310.58	-1077.7	120.27	264.78	-1642.4	1503.9	319.48	-1683.7	1219.1	332.67
8	0.029167	NaN	NaN	NaN	-1555.4	1447.1	489.54	-1582.7	1468.8	153.84	-1567.6	1760.8	333.19	NaN	NaN	NaN	NaN	NaN	NaN	NaN	NaN	NaN	NaN	NaN	NaN	-1555.9	888.52	494.02	-1533.7	890.72	126.81	-1568	1064.8	472.06	-1546.9	1077.7	162.04	-1675.3	979.07	295	-1622	702.89	474.36	-1570.1	590.95	440.72	NaN	NaN	NaN	-1543.6	680.73	465.88	-1640.6	504	433.33	-1651.7	514.25	304.93	-1792.9	374.06	431.83	-1753.3	290.85	407.87	-1819.3	304.63	422.32	NaN	NaN	NaN	-1907.1	158.61	381.66	-1869.3	158.87	305.69	-1963.9	140.31	331.83	-1958.9	110.44	305.07	-1969.1	116.24	365.67	-1814.9	42.552	420.49	NaN	NaN	NaN	-1723.5	51.207	353.26	-1481.4	685.93	144.52	-1359.1	632.86	158.76	-1437.1	607.75	160.9	NaN	NaN	NaN	-1381	520.65	180.49	-1370.2	524.04	304.62	-1382.4	331.9	178.65	-1292.1	268.6	200.59	-1365.4	261.01	193.82	-1316.8	339.05	185.34	-1290.6	100.85	206.92	-1270.9	114.94	295.67	NaN	NaN	NaN	-1313.8	38.542	288.86	-1318.5	42.687	225.02	-1146	70.218	199.55	-1134.2	81.876	311.14	-1075.7	116.13	265.55	-1636.7	1503.6	318.92	-1677.5	1218.7	332.21
9	0.033333	NaN	NaN	NaN	-1549.6	1446.9	489	-1576.8	1468.6	153.26	-1562.1	1760.7	332.8	NaN	NaN	NaN	NaN	NaN	NaN	NaN	NaN	NaN	NaN	NaN	NaN	-1549.3	888.11	493.5	-1527.6	890.79	126.54	-1561.3	1064.5	471.7	-1540.6	1077.6	161.65	-1668.8	978.97	294.72	-1615.3	702.36	473.73	-1563.7	590.37	440.78	NaN	NaN	NaN	-1536.8	680.13	465.84	-1633.3	503.5	433.61	-1643.8	513.33	305.08	-1786.3	375.14	432.13	-1748	291.8	408.34	-1813.8	306.22	422.61	NaN	NaN	NaN	-1904	161.37	382.41	-1865.9	161.16	306.5	-1960.6	144.58	332.31	-1956.3	114.92	305.37	-1966.6	120.48	365.99	-1814.5	42.926	420.55	NaN	NaN	NaN	-1723.3	51.09	353.22	-1475.2	685.97	144.46	-1353	632.78	159.07	-1431	607.75	160.91	NaN	NaN	NaN	-1375.2	520.41	180.61	-1364.5	523.95	304.51	-1378	331.73	178.67	-1288.5	267.65	200.96	-1361.8	260.69	193.88	-1312.4	338.33	185.64	-1288.8	100.09	207.07	-1268.9	113.96	296.13	NaN	NaN	NaN	-1313	38.594	288.96	-1317.7	43.004	225.18	-1144.7	67.5	200.02	-1132.8	78.553	311.67	-1073.6	112.05	266.28	-1631	1503.3	318.35	-1671.2	1218.3	331.75
